name D:\school\WTK\thesis\model\3dpredictsim\Results\debug_batch\Pog_s1_tmt_bCst_d00_k500_ig24.mot
datacolumns 128
datarows 4
range 1.64033368 1.67314035
endheader
time	pelvis_tilt	pelvis_list	pelvis_rotation	pelvis_tx	pelvis_ty	pelvis_tz	hip_flexion_l	hip_adduction_l	hip_rotation_l	hip_flexion_r	hip_adduction_r	hip_rotation_r	knee_angle_l	knee_angle_r	ankle_angle_l	ankle_angle_r	subtalar_angle_l	subtalar_angle_r	tmt_angle_l	tmt_angle_r	mtp_angle_l	mtp_angle_r	lumbar_extension	lumbar_bending	lumbar_rotation	arm_flex_l	arm_add_l	arm_rot_l	arm_flex_r	arm_add_r	arm_rot_r	elbow_flex_l	elbow_flex_r	pro_sup_l	pro_sup_r	glut_med1_l/activation	glut_med2_l/activation	glut_med3_l/activation	glut_min1_l/activation	glut_min2_l/activation	glut_min3_l/activation	semimem_l/activation	semiten_l/activation	bifemlh_l/activation	bifemsh_l/activation	sar_l/activation	add_long_l/activation	add_brev_l/activation	add_mag1_l/activation	add_mag2_l/activation	add_mag3_l/activation	tfl_l/activation	pect_l/activation	grac_l/activation	glut_max1_l/activation	glut_max2_l/activation	glut_max3_l/activation	iliacus_l/activation	psoas_l/activation	quad_fem_l/activation	gem_l/activation	peri_l/activation	rect_fem_l/activation	vas_med_l/activation	vas_int_l/activation	vas_lat_l/activation	med_gas_l/activation	lat_gas_l/activation	soleus_l/activation	tib_post_l/activation	flex_dig_l/activation	flex_hal_l/activation	tib_ant_l/activation	per_brev_l/activation	per_long_l/activation	per_tert_l/activation	ext_dig_l/activation	ext_hal_l/activation	ercspn_l/activation	intobl_l/activation	extobl_l/activation	glut_med1_r/activation	glut_med2_r/activation	glut_med3_r/activation	glut_min1_r/activation	glut_min2_r/activation	glut_min3_r/activation	semimem_r/activation	semiten_r/activation	bifemlh_r/activation	bifemsh_r/activation	sar_r/activation	add_long_r/activation	add_brev_r/activation	add_mag1_r/activation	add_mag2_r/activation	add_mag3_r/activation	tfl_r/activation	pect_r/activation	grac_r/activation	glut_max1_r/activation	glut_max2_r/activation	glut_max3_r/activation	iliacus_r/activation	psoas_r/activation	quad_fem_r/activation	gem_r/activation	peri_r/activation	rect_fem_r/activation	vas_med_r/activation	vas_int_r/activation	vas_lat_r/activation	med_gas_r/activation	lat_gas_r/activation	soleus_r/activation	tib_post_r/activation	flex_dig_r/activation	flex_hal_r/activation	tib_ant_r/activation	per_brev_r/activation	per_long_r/activation	per_tert_r/activation	ext_dig_r/activation	ext_hal_r/activation	ercspn_r/activation	intobl_r/activation	extobl_r/activation	
          1.64033368	         -2.92935043	          2.19734090	         -5.83447546	          2.05041710	          0.85733317	          0.00272437	         31.63962918	          3.00182062	         -2.62429698	        -17.79797362	         -1.67955966	          7.34242387	        -14.40916883	         -8.26464305	          6.61850926	         -0.65167065	         -2.49742406	         10.56781550	          0.07768260	          3.41847674	         -0.08980231	         21.56669684	         -1.83639748	         -0.59722117	          2.03918414	         -8.80388074	        -13.53937707	          7.80150263	          7.41980435	        -13.45631373	         17.75238575	         14.63917197	         35.55719454	         86.51662706	         86.51662706	          0.05911293	          0.05911297	          0.05000012	          0.05911302	          0.05911301	          0.05911282	          0.08625014	          0.05911309	          0.22053789	          0.05911252	          0.05000019	          0.14273111	          0.29389583	          0.08747298	          0.14198279	          0.09102154	          0.05000018	          0.06590085	          0.14853602	          0.05000032	          0.05000016	          0.14939814	          0.05911390	          0.05000054	          0.31608490	          0.30259682	          0.14420996	          0.05000041	          0.10746576	          0.11825138	          0.10076889	          0.06185873	          0.06320553	          0.05911335	          0.05000002	          0.05000032	          0.05000042	          0.50999436	          0.33287918	          0.19205436	          0.25916859	          0.52733052	          0.28446788	          0.05915020	          0.10371851	          0.10030594	          0.27615078	          0.10164690	          0.06902404	          0.30436914	          0.20822873	          0.10958835	          0.05000105	          0.05000014	          0.05000011	          0.06827627	          0.11107532	          0.09557819	          0.09082135	          0.05000107	          0.05000192	          0.05000076	          0.32247941	          0.10042663	          0.05000061	          0.05000081	          0.05000057	          0.05000061	          0.37555223	          0.60188966	          0.05000007	          0.05000023	          0.05000023	          0.22562360	          0.08897317	          0.05497533	          0.06260194	          0.29267085	          0.39619427	          0.30077130	          0.25600037	          0.25549214	          0.33112647	          0.05000003	          0.05911317	          0.14549417	          0.05000022	          0.05000005	          0.05000017	          0.05000002	          0.05000005	          0.05127183	
          1.65126924	         -2.92358651	          2.29181653	         -6.11158656	          2.06698281	          0.85635000	          0.00251703	         31.01201559	          3.39900234	         -2.37591082	        -17.59327358	         -1.98354198	          7.10963630	        -14.75062499	        -10.30508886	          5.90842717	         -1.41685624	         -2.95463510	         11.55965556	          0.01958828	          2.91851994	         -0.06889812	         22.73477123	         -1.62974265	         -0.81861338	          2.11202563	         -9.86956935	        -13.52654441	          7.65743048	          7.21481381	        -13.46659537	         17.97560000	         14.53222915	         36.65036025	         86.51662706	         86.51662706	          0.05000000	          0.05000004	          0.10601220	          0.05000007	          0.05000007	          0.05000006	          0.07295369	          0.05000018	          0.18653939	          0.05000006	          0.06988673	          0.12072756	          0.28432099	          0.37767650	          0.23096190	          0.09183932	          0.05000044	          0.07010295	          0.12866012	          0.05709438	          0.07025543	          0.12637053	          0.05000089	          0.06988693	          0.59136687	          0.25594796	          0.12197833	          0.06988673	          0.16628704	          0.17805784	          0.15256405	          0.05911506	          0.06372373	          0.05000033	          0.05911266	          0.07024342	          0.06988695	          0.50036162	          0.40904036	          0.23776810	          0.21921485	          0.51440739	          0.24061384	          0.05003150	          0.08772908	          0.08484259	          0.23357889	          0.08597685	          0.05911308	          0.25744709	          0.17612785	          0.09269406	          0.05003182	          0.05001277	          0.05911269	          0.05775071	          0.09395187	          0.19900439	          0.13023436	          0.13789522	          0.05911691	          0.05911401	          0.27276550	          0.09197723	          0.05911404	          0.05012676	          0.05910806	          0.05911353	          0.31765644	          0.54949901	          0.05911353	          0.05911646	          0.05911318	          0.19084108	          0.12127041	          0.16141595	          0.15577852	          0.24755218	          0.33511624	          0.25440384	          0.21653497	          0.21610530	          0.28007960	          0.05000000	          0.05000024	          0.13217208	          0.05000004	          0.05000001	          0.05000007	          0.05960127	          0.06988685	          0.05744452	
          1.66220479	         -2.91346919	          2.38832856	         -6.35842563	          2.08383015	          0.85534298	          0.00232837	         30.19420503	          3.70560436	         -2.09502157	        -17.31537558	         -2.27827924	          6.86146870	        -15.21664781	        -12.46522808	          5.40671087	         -2.34767732	         -3.43357356	         12.47582943	         -0.02523722	          2.38962789	         -0.18340342	         23.73670821	         -1.40218361	         -1.04784119	          2.17377870	        -10.94118079	        -13.52093990	          7.57345877	          6.91782174	        -13.47704779	         18.11464257	         14.45263228	         37.72897423	         86.51662706	         86.51662706	          0.27269285	          0.27456638	          0.34672411	          0.40326288	          0.24834610	          0.25389344	          0.08265162	          0.07636533	          0.15778228	          0.08262624	          0.05911321	          0.10211602	          0.24048960	          0.31945327	          0.19535653	          0.11051318	          0.05000032	          0.05929831	          0.11849740	          0.15323694	          0.05942491	          0.10688934	          0.05238065	          0.05911306	          0.50020070	          0.21649066	          0.24375524	          0.05911288	          0.14065198	          0.15060820	          0.12904455	          0.05000183	          0.05390005	          0.05799572	          0.05000008	          0.05941463	          0.05911315	          0.56137639	          0.39475801	          0.20111351	          0.48116643	          0.58335801	          0.27739912	          0.06240437	          0.11241509	          0.07176311	          0.33073575	          0.07272253	          0.05000017	          0.36190257	          0.14897580	          0.07840423	          0.05000134	          0.05000013	          0.05000012	          0.05000038	          0.08262337	          0.16832555	          0.11015726	          0.11663708	          0.05000348	          0.05000098	          0.29067542	          0.07779894	          0.05000120	          0.05000131	          0.05000071	          0.05000070	          0.26868607	          0.51578663	          0.05000052	          0.05000311	          0.05000030	          0.16142068	          0.10257520	          0.13653183	          0.13176347	          0.20938907	          0.28345411	          0.21518447	          0.18315356	          0.18279021	          0.23690207	          0.05000080	          0.08541873	          0.17701634	          0.05000035	          0.11215346	          0.05000063	          0.06103396	          0.05911297	          0.05000006	
          1.67314035	         -2.90103630	          2.47631032	         -6.56694029	          2.10073964	          0.85433496	          0.00211488	         29.28855728	          3.98690022	         -1.81313741	        -16.93826435	         -2.55529604	          6.61821580	        -15.60907427	        -14.76789250	          5.03313781	         -3.39053192	         -3.92359783	         13.33281291	         -0.04485530	          1.82615084	         -0.17916053	         24.44220501	         -1.17722127	         -1.27338034	          2.22462784	        -11.96548529	        -13.51672067	          7.55634031	          6.56507780	        -13.49639457	         18.19277964	         14.36760458	         38.77373357	         86.51662706	         86.51662706	          0.36847077	          0.38000545	          0.40075409	          0.34109608	          0.24117369	          0.24112344	          0.07741942	          0.10949019	          0.13345832	          0.06988856	          0.05000062	          0.08637366	          0.20341532	          0.27020601	          0.21359286	          0.15783893	          0.05000025	          0.05015754	          0.11827716	          0.24291693	          0.17377368	          0.15398486	          0.05000009	          0.05000016	          0.42308886	          0.18311612	          0.20617813	          0.05000004	          0.11898876	          0.20404408	          0.15467171	          0.05000001	          0.05000003	          0.05000000	          0.05000000	          0.05025527	          0.05000031	          0.62456890	          0.36318201	          0.18362908	          0.68522143	          0.61513442	          0.36930250	          0.08201807	          0.09508498	          0.06069998	          0.27974898	          0.06151152	          0.05000007	          0.30611109	          0.12600948	          0.06631734	          0.05000133	          0.05000009	          0.05000011	          0.05000007	          0.06988615	          0.17695553	          0.17230750	          0.09865670	          0.05003628	          0.06097886	          0.24586476	          0.06581562	          0.05000036	          0.05000249	          0.05000173	          0.05000121	          0.22726496	          0.45833141	          0.05000014	          0.05000047	          0.05000014	          0.13653578	          0.11548700	          0.11548704	          0.11548699	          0.17710927	          0.23975631	          0.18201124	          0.15491830	          0.15461103	          0.20038088	          0.11449362	          0.15540622	          0.14974797	          0.05000119	          0.20769249	          0.05000185	          0.09136243	          0.05000002	          0.05000003	
